<svg xmlns="http://www.w3.org/2000/svg" viewBox="0 0 805.11 368.85"><defs><style>.cls-1{fill:#fff;}</style></defs><title>peuco-logo-blanco</title><g id="Capa_2" data-name="Capa 2"><g id="Letras"><path class="cls-1" d="M795.51,263.66c-158.13.3-783.49,0-783.49,0-6.11,0-12.49-3.24-12-7.25s1.82-10.13,9.73-10.18c27.32-.19,590.13-.91,785.75,0,4.9,0,9.36,2.13,9.59,8.06C805.32,260,801,263.65,795.51,263.66Z"/><path class="cls-1" d="M129.29,0c12-.61,25.93,5.29,29.3,9.61s4.92,7.32,4.56,10.56c-.3,2.67.3,2.58.3,2.58s3.77,2.71,5,3.85c1.68,1.5,4.74,5.82,5.1,9.06s.9,6.48-.6,8.64a28.79,28.79,0,0,1-3.18,3.79l.48-4.51L163.39,42c-1.56-.36-4.14-1.92-6.24-1.74s-5.23,3.48-6.31,4.68a4.9,4.9,0,0,0-1.2,4c.18,1.26,2.82,5.76,4.38,8s8.41,20,9.37,22.57c0,0,7.32,27.13,9,39s2.4,19.93,1,26.17-3.84,16.21-6.36,22a41.22,41.22,0,0,1-5.4,9.12c-.6,1-.6-2-.6-2s1.2-2.52-2.4,4.56a60.93,60.93,0,0,1-6.88,10.93s-9,20.17-10.17,21.49a21,21,0,0,0-2.28,3.24s-2.52,5.64-3.84,6.72-4.21,8.17-6.13,9.85-2.88,2.88-4.44,3.24-5.16,1.56-5.16,1.56,1.2,6.54,0,9.24-1,6.49-1.92,9.37-3.24,9.72-3.24,9.72l-1.62,1.62a39.48,39.48,0,0,1-1.27,7.39c-.9,2.7-2.69,5.4-3.5,5.94,0,0-3.16,2.16-4.06,3.6s-2.34,20.17-2.34,22.51.18,20.35,0,24.13-1.08,9.55-1.08,11.17-1.26.36-1.44,2.16-1.08,6.66-1.08,9.18-1.62,3.78-1.8,4.5-1.26.54-1.8,0-2.34,3.42-3.06,4.33-1.81,0-1.81,0l-1.26,2.7-2.16-2.34s1.26,4.86,0,4.86H81.57s-.36-2.52-.9-3.06-1.44,2.52-2.52,3.06a19,19,0,0,1-6.66,1.44c-1.62-.18-3.24-2.7-3.24-2.7v4.68s-1.81-1.08-3.43-2.16-2.52-1.26-3.42-3.06-1.44-2-2.34-4.87-1.26-9.18-1.44-13.86,0-24.13.9-31,2.16-29.17,2.16-34.75S59.6,259,59.42,257s-1.2-3.78-1.86-4.14-3.54-1.62-4.8-4.32-4.14-24.5-5.4-29.9-3.25-13.14-4.87-18.19S40.33,177.78,40.33,174a34,34,0,0,0-1.62-9.72c-.72-2.34-2-5.95-2.52-8.11s-.36-21.79,0-32,1.08-11.89,2.52-18.55,4-18,7.75-24.13,8.1-13.87,13.68-16.93a43.12,43.12,0,0,1,9.19-4s6.84-7.38,8.46-9.9a18.32,18.32,0,0,0,3.06-7.39c.72-3.42,13-20.17,14.05-21.79a27.64,27.64,0,0,1,3.78-4l-2.34.72s8.46-7.74,14.4-11.16S118.67.58,129.29,0Z"/><path class="cls-1" d="M278.19,176H260.12v27.57q0,5.92-2.8,9a9.82,9.82,0,0,1-14.21,0q-2.73-3-2.73-8.87V128.59q0-6.51,3-9.3t9.5-2.79h25.32q11.22,0,17.27,1.73a25.89,25.89,0,0,1,10.33,5.51,25,25,0,0,1,6.61,9.44,33.29,33.29,0,0,1,2.26,12.55q0,14.9-9.17,22.56T278.19,176Zm-4.79-44.64H260.12v29.76H273.4a39.84,39.84,0,0,0,11.66-1.46,13.55,13.55,0,0,0,7.14-4.79,14.24,14.24,0,0,0,2.46-8.7,14.76,14.76,0,0,0-3.78-10.49Q286.62,131.32,273.4,131.32Z"/><path class="cls-1" d="M395.31,131.72H350.87v23.91h40.92q4.51,0,6.75,2a6.89,6.89,0,0,1,2.22,5.35,7.14,7.14,0,0,1-2.19,5.41c-1.46,1.4-3.72,2.09-6.78,2.09H350.87v27.71h46q4.65,0,7,2.16a7.41,7.41,0,0,1,2.36,5.74,7.27,7.27,0,0,1-2.36,5.62q-2.36,2.16-7,2.16H343.23q-6.45,0-9.27-2.86t-2.82-9.23V128.59a16.43,16.43,0,0,1,1.26-6.94,7.86,7.86,0,0,1,4-3.92,16.61,16.61,0,0,1,6.88-1.23h52.08c3.15,0,5.48.7,7,2.09a7.79,7.79,0,0,1,0,11C400.79,131,398.46,131.72,395.31,131.72Z"/><path class="cls-1" d="M422,173.64V126.8q0-6,2.69-9a9.08,9.08,0,0,1,7.08-3,9.3,9.3,0,0,1,7.27,3c1.8,2,2.69,5,2.69,9v47.9a43.59,43.59,0,0,0,1.83,13.65,15.79,15.79,0,0,0,6.48,8.51q4.65,3,13,3,11.55,0,16.34-6.15t4.78-18.63V126.8q0-6,2.66-9a9.09,9.09,0,0,1,7.11-3,9.41,9.41,0,0,1,7.21,3q2.76,3,2.76,9v46.84a69.34,69.34,0,0,1-2.23,19.06,29.34,29.34,0,0,1-8.4,13.42A32.78,32.78,0,0,1,481,213.3a54.3,54.3,0,0,1-16.48,2.26,67.78,67.78,0,0,1-19.33-2.43,30.87,30.87,0,0,1-13.22-7.51,30.23,30.23,0,0,1-7.51-13A66.33,66.33,0,0,1,422,173.64Z"/><path class="cls-1" d="M608.24,183.14A25.9,25.9,0,0,1,606,193.2a36.21,36.21,0,0,1-7.21,10.63,36.71,36.71,0,0,1-12.56,8.47,45.09,45.09,0,0,1-17.8,3.26,62.5,62.5,0,0,1-14-1.46,39.46,39.46,0,0,1-11.46-4.55,38.89,38.89,0,0,1-9.47-8.14,48.12,48.12,0,0,1-6.57-10.27A53.22,53.22,0,0,1,522.77,179a66,66,0,0,1-1.36-13.69,60.73,60.73,0,0,1,3.42-21.06,45,45,0,0,1,9.8-15.91,42.58,42.58,0,0,1,15-10.06,48.25,48.25,0,0,1,18.27-3.46,45.6,45.6,0,0,1,21.06,4.72,38.13,38.13,0,0,1,14.15,11.66q4.92,6.94,4.92,13.12a8.54,8.54,0,0,1-2.4,6,7.56,7.56,0,0,1-5.78,2.59q-3.78,0-5.68-1.79a24.8,24.8,0,0,1-4.21-6.18,29.77,29.77,0,0,0-9.07-10.83A22.19,22.19,0,0,0,568,130.52q-12.15,0-19.37,9.23T541.41,166q0,11.35,3.18,18.9a23.86,23.86,0,0,0,9,11.26,25,25,0,0,0,13.69,3.72,24,24,0,0,0,14.38-4.22q5.88-4.22,8.87-12.39a21,21,0,0,1,3.12-6.28c1.24-1.62,3.23-2.42,6-2.42a8.41,8.41,0,0,1,6.05,2.45A8.21,8.21,0,0,1,608.24,183.14Z"/><path class="cls-1" d="M668.83,114.84q15.15,0,26,6.15a39.8,39.8,0,0,1,16.44,17.47q5.58,11.32,5.58,26.61a65.21,65.21,0,0,1-3.05,20.52,44.55,44.55,0,0,1-9.17,16,40.18,40.18,0,0,1-15,10.36,54.31,54.31,0,0,1-20.4,3.59,53.68,53.68,0,0,1-20.46-3.69,40.48,40.48,0,0,1-15.08-10.4,44.24,44.24,0,0,1-9.14-16.14,65.18,65.18,0,0,1-3.09-20.4,62.89,62.89,0,0,1,3.22-20.59,44.17,44.17,0,0,1,9.34-16,40.28,40.28,0,0,1,14.88-10.06A53.5,53.5,0,0,1,668.83,114.84Zm28,50.09a45.7,45.7,0,0,0-3.46-18.53,25.77,25.77,0,0,0-9.86-11.86,27.14,27.14,0,0,0-14.72-4,26.57,26.57,0,0,0-10.93,2.23,24,24,0,0,0-8.63,6.47,31,31,0,0,0-5.72,10.87,49.17,49.17,0,0,0-2.09,14.84,50.49,50.49,0,0,0,2.09,15,31,31,0,0,0,5.91,11.13,24.91,24.91,0,0,0,8.77,6.61,27.72,27.72,0,0,0,24.79-1.6,26.18,26.18,0,0,0,10.09-11.69Q696.88,176.5,696.87,164.93Z"/></g></g></svg>